<svg class="ue-logo" width="36" height="36" viewBox="0 0 42 42" fill="none" xmlns="http://www.w3.org/2000/svg"><path fill-rule="evenodd" clip-rule="evenodd" d="M33.479 24.025c-.362 1.746-1.972 6.225-7.108 8.651l-2.061-2.319-3.48 3.496c-2.23-.006-6.874-.794-10.155-5.209 0 0 .651.206 1.137.215.569.01 1.187-.198 1.187-1.155v-9.44a1.553 1.553 0 00-1.955-1.555c-1.611.368-2.897 4.388-2.897 4.388-.004-4.855 2.49-8.161 4.424-9.795 2.403-2.032 4.746-2.73 6.527-3.011-1.758 1.003-2.747 2.637-2.747 4.007 0 2.203 1.33 1.941 1.723 1.617v12.738s.079.205.261.449c.266.351.751.781 1.538.781 1.332 0 3.059-1.52 3.059-1.52V16.05c0-1.05-.792-2.316-1.583-2.751 0 0 1.465-.264 2.599.607.244-.298.475-.548.676-.745 2.635-2.59 5.123-3.324 7.193-3.697h.003s-3.77 2.96-3.77 6.928c0 2.953.077 10.153.077 10.153 1.397 1.352 3.474-.597 5.352-2.52z" fill="#fff"/><path fill-rule="evenodd" clip-rule="evenodd" d="M21 41c11.046 0 20-8.954 20-20S32.046 1 21 1 1 9.954 1 21s8.954 20 20 20zm0 1c11.598 0 21-9.402 21-21S32.598 0 21 0 0 9.402 0 21s9.402 21 21 21z" fill="#fff"/></svg>