<?xml version="1.0" encoding="UTF-8"?>
<svg xmlns="http://www.w3.org/2000/svg" xmlns:xlink="http://www.w3.org/1999/xlink" width="533pt" height="94pt" viewBox="0 0 533 94" version="1.1">
<g id="surface1">
<path style=" stroke:none;fill-rule:evenodd;fill:rgb(13.699341%,12.199402%,12.5%);fill-opacity:1;" d="M 103.230469 81.472656 L 103.230469 22.71875 L 113.382813 22.71875 L 113.382813 31.648438 C 115.976563 27.472656 118.351563 24.734375 120.511719 23.367188 C 122.742188 22.070313 125.121094 21.421875 127.785156 21.421875 C 131.601563 21.421875 135.414063 22.503906 139.375 24.589844 L 135.488281 33.878906 C 132.753906 32.4375 129.945313 31.71875 127.207031 31.71875 C 124.761719 31.71875 122.527344 32.367188 120.585938 33.664063 C 118.640625 34.960938 117.199219 36.757813 116.40625 39.136719 C 115.113281 42.664063 114.535156 46.550781 114.535156 50.726563 L 114.535156 81.472656 L 103.230469 81.472656 "/>
<path style=" stroke:none;fill-rule:evenodd;fill:rgb(13.699341%,12.199402%,12.5%);fill-opacity:1;" d="M 135.414063 52.09375 C 135.414063 41.222656 138.871094 33.160156 145.710938 27.902344 C 151.398438 23.582031 158.382813 21.421875 166.59375 21.421875 C 175.734375 21.421875 183.222656 24.085938 188.984375 29.34375 C 194.816406 34.671875 197.695313 41.941406 197.695313 51.304688 C 197.695313 58.863281 196.398438 64.765625 193.808594 69.160156 C 191.289063 73.480469 187.542969 76.789063 182.648438 79.238281 C 177.753906 81.613281 172.425781 82.839844 166.59375 82.839844 C 157.304688 82.839844 149.742188 80.175781 143.984375 74.917969 C 138.296875 69.664063 135.414063 62.03125 135.414063 52.09375 Z M 147.007813 52.09375 C 147.007813 59.65625 148.878906 65.269531 152.550781 69.015625 C 156.296875 72.757813 160.976563 74.632813 166.59375 74.632813 C 172.207031 74.632813 176.816406 72.757813 180.558594 69.015625 C 184.304688 65.199219 186.105469 59.511719 186.105469 51.808594 C 186.105469 44.535156 184.230469 38.992188 180.488281 35.320313 C 176.816406 31.503906 172.136719 29.632813 166.59375 29.632813 C 160.976563 29.632813 156.296875 31.503906 152.550781 35.246094 C 148.878906 38.992188 147.007813 44.605469 147.007813 52.09375 "/>
<path style=" stroke:none;fill-rule:evenodd;fill:rgb(13.699341%,12.199402%,12.5%);fill-opacity:1;" d="M 204.535156 81.472656 L 204.535156 0.398438 L 215.839844 0.398438 L 215.839844 46.621094 L 242.480469 22.71875 L 257.097656 22.71875 L 231.679688 44.535156 L 259.617188 81.472656 L 245.71875 81.472656 L 223.761719 51.449219 L 215.839844 58.214844 L 215.839844 81.472656 L 204.535156 81.472656 "/>
<path style=" stroke:none;fill-rule:evenodd;fill:rgb(13.699341%,12.199402%,12.5%);fill-opacity:1;" d="M 307.640625 62.535156 L 319.304688 63.832031 C 317.503906 69.878906 314.046875 74.488281 309.078125 77.871094 C 304.183594 81.183594 297.777344 82.839844 290.070313 82.839844 C 280.351563 82.839844 272.648438 80.175781 266.960938 74.917969 C 261.273438 69.589844 258.390625 62.175781 258.390625 52.597656 C 258.390625 42.734375 261.273438 35.03125 267.03125 29.632813 C 272.792969 24.160156 280.28125 21.421875 289.496094 21.421875 C 298.351563 21.421875 305.625 24.085938 311.238281 29.414063 C 316.855469 34.816406 319.664063 42.304688 319.664063 52.023438 C 319.664063 52.597656 319.664063 53.464844 319.664063 54.6875 L 270.054688 54.6875 C 270.488281 61.09375 272.503906 66.0625 276.246094 69.449219 C 279.992188 72.902344 284.601563 74.632813 290.144531 74.632813 C 294.246094 74.632813 297.777344 73.695313 300.726563 71.75 C 303.679688 69.808594 305.984375 66.78125 307.640625 62.535156 Z M 270.703125 46.480469 L 307.785156 46.480469 C 307.28125 41.511719 305.910156 37.839844 303.535156 35.320313 C 299.9375 31.503906 295.328125 29.632813 289.566406 29.632813 C 284.382813 29.632813 280.0625 31.144531 276.535156 34.167969 C 273.007813 37.261719 271.0625 41.367188 270.703125 46.480469 "/>
<path style=" stroke:none;fill-rule:evenodd;fill:rgb(13.699341%,12.199402%,12.5%);fill-opacity:1;" d="M 351.632813 72.613281 L 353.289063 81.398438 C 350.121094 81.976563 347.238281 82.261719 344.71875 82.261719 C 340.6875 82.261719 337.519531 81.6875 335.214844 80.535156 C 332.984375 79.382813 331.398438 77.941406 330.464844 76.070313 C 329.527344 74.199219 329.097656 70.238281 329.097656 64.261719 L 329.097656 30.496094 L 320.816406 30.496094 L 320.816406 22.71875 L 329.097656 22.71875 L 329.097656 8.175781 L 340.328125 2.199219 L 340.328125 22.71875 L 351.632813 22.71875 L 351.632813 30.496094 L 340.328125 30.496094 L 340.328125 64.839844 C 340.328125 67.648438 340.472656 69.519531 340.902344 70.3125 C 341.265625 71.101563 341.910156 71.75 342.847656 72.253906 C 343.710938 72.757813 345.007813 72.976563 346.664063 72.976563 C 347.960938 72.976563 349.617188 72.832031 351.632813 72.613281 "/>
<path style=" stroke:none;fill-rule:evenodd;fill:rgb(13.699341%,12.199402%,12.5%);fill-opacity:1;" d="M 351.703125 63.976563 L 362.863281 62.390625 C 363.511719 66.351563 365.238281 69.375 368.046875 71.464844 C 370.929688 73.550781 374.960938 74.632813 380.070313 74.632813 C 385.257813 74.632813 389.070313 73.695313 391.59375 71.894531 C 394.113281 69.953125 395.335938 67.789063 395.335938 65.269531 C 395.335938 63.039063 394.257813 61.238281 392.023438 59.941406 C 390.511719 59.078125 386.625 57.925781 380.503906 56.558594 C 372.222656 54.757813 366.535156 53.175781 363.296875 51.808594 C 360.128906 50.4375 357.679688 48.640625 356.023438 46.261719 C 354.441406 43.886719 353.574219 41.222656 353.574219 38.34375 C 353.574219 35.75 354.296875 33.304688 355.59375 31.070313 C 356.960938 28.839844 358.832031 26.96875 361.207031 25.527344 C 362.9375 24.375 365.3125 23.367188 368.335938 22.648438 C 371.359375 21.78125 374.601563 21.421875 378.054688 21.421875 C 383.3125 21.421875 387.847656 22.070313 391.808594 23.367188 C 395.769531 24.734375 398.648438 26.535156 400.519531 28.839844 C 402.390625 31.070313 403.6875 34.09375 404.40625 37.910156 L 393.390625 39.207031 C 392.886719 36.183594 391.449219 33.808594 389 32.152344 C 386.625 30.421875 383.238281 29.632813 378.921875 29.632813 C 373.734375 29.632813 369.992188 30.351563 367.832031 31.863281 C 365.601563 33.375 364.519531 35.175781 364.519531 37.191406 C 364.519531 38.488281 364.953125 39.640625 365.886719 40.648438 C 366.824219 41.726563 368.191406 42.589844 370.207031 43.3125 C 371.289063 43.671875 374.601563 44.535156 380.144531 45.832031 C 388.136719 47.773438 393.679688 49.285156 396.777344 50.511719 C 399.945313 51.664063 402.464844 53.390625 404.265625 55.695313 C 406.0625 58 406.929688 60.808594 406.929688 64.191406 C 406.929688 67.574219 405.847656 70.671875 403.617188 73.621094 C 401.457031 76.574219 398.289063 78.808594 394.183594 80.464844 C 390.007813 82.046875 385.328125 82.839844 380.144531 82.839844 C 371.503906 82.839844 364.878906 81.253906 360.34375 78.085938 C 355.878906 74.917969 353 70.167969 351.703125 63.976563 "/>
<path style=" stroke:none;fill-rule:evenodd;fill:rgb(13.699341%,12.199402%,12.5%);fill-opacity:1;" d="M 457.257813 74.269531 C 453.078125 77.367188 449.046875 79.597656 445.230469 80.894531 C 441.34375 82.191406 437.238281 82.839844 432.777344 82.839844 C 425.503906 82.839844 419.886719 81.253906 416 78.085938 C 412.039063 74.917969 410.097656 70.886719 410.097656 65.992188 C 410.097656 63.109375 410.816406 60.519531 412.257813 58.144531 C 413.769531 55.765625 415.710938 53.824219 418.089844 52.382813 C 420.535156 50.941406 423.199219 49.863281 426.222656 49.144531 C 428.457031 48.640625 431.769531 48.136719 436.230469 47.632813 C 445.375 46.695313 452.070313 45.542969 456.320313 44.175781 C 456.390625 42.808594 456.390625 41.941406 456.390625 41.582031 C 456.390625 37.550781 455.3125 34.671875 453.222656 33.015625 C 450.34375 30.78125 446.023438 29.632813 440.40625 29.632813 C 435.078125 29.632813 431.191406 30.496094 428.601563 32.152344 C 426.078125 33.734375 424.28125 36.6875 423.054688 40.789063 L 412.039063 39.496094 C 413.046875 35.320313 414.703125 32.007813 416.9375 29.414063 C 419.238281 26.824219 422.550781 24.878906 426.945313 23.511719 C 431.265625 22.144531 436.304688 21.421875 441.992188 21.421875 C 447.679688 21.421875 452.289063 22 455.816406 23.152344 C 459.414063 24.375 462.007813 25.886719 463.664063 27.6875 C 465.320313 29.414063 466.472656 31.648438 467.191406 34.382813 C 467.550781 36.109375 467.769531 39.136719 467.769531 43.597656 L 467.769531 56.847656 C 467.769531 66.136719 467.984375 71.96875 468.414063 74.488281 C 468.921875 76.863281 469.855469 79.238281 471.296875 81.472656 L 459.558594 81.472656 C 458.335938 79.457031 457.617188 77.007813 457.257813 74.269531 Z M 456.320313 52.023438 C 452.214844 53.464844 446.097656 54.757813 437.960938 55.765625 C 433.28125 56.34375 430.039063 56.992188 428.097656 57.78125 C 426.222656 58.503906 424.710938 59.582031 423.632813 61.023438 C 422.625 62.390625 422.121094 63.976563 422.121094 65.703125 C 422.121094 68.367188 423.199219 70.597656 425.503906 72.328125 C 427.808594 74.128906 431.121094 74.992188 435.511719 74.992188 C 439.832031 74.992188 443.71875 74.199219 447.105469 72.542969 C 450.488281 70.816406 452.9375 68.511719 454.519531 65.632813 C 455.742188 63.328125 456.320313 60.015625 456.320313 55.621094 L 456.320313 52.023438 "/>
<path style=" stroke:none;fill-rule:evenodd;fill:rgb(13.699341%,12.199402%,12.5%);fill-opacity:1;" d="M 478.785156 81.472656 L 478.785156 22.71875 L 488.9375 22.71875 L 488.9375 31.070313 C 493.761719 24.664063 500.816406 21.421875 510.105469 21.421875 C 514.0625 21.421875 517.734375 22.070313 521.121094 23.367188 C 524.433594 24.589844 527.023438 26.246094 528.679688 28.335938 C 530.335938 30.421875 531.488281 32.871094 532.136719 35.679688 C 532.566406 37.550781 532.785156 40.71875 532.785156 45.328125 L 532.785156 81.472656 L 521.550781 81.472656 L 521.550781 45.757813 C 521.550781 41.726563 521.121094 38.703125 520.183594 36.6875 C 519.320313 34.671875 517.734375 33.015625 515.503906 31.863281 C 513.273438 30.640625 510.679688 30.0625 507.65625 30.0625 C 502.902344 30.0625 498.726563 31.359375 495.199219 34.09375 C 491.742188 36.757813 490.015625 41.871094 490.015625 49.429688 L 490.015625 81.472656 L 478.785156 81.472656 "/>
<path style=" stroke:none;fill-rule:evenodd;fill:rgb(32.899475%,58.399963%,20.399475%);fill-opacity:1;" d="M 6.1875 27.964844 L 0.492188 49.421875 C 0.542969 41.621094 2.605469 34.300781 6.1875 27.964844 "/>
<path style=" stroke:none;fill-rule:evenodd;fill:rgb(32.899475%,58.399963%,20.399475%);fill-opacity:1;" d="M 13.527344 18.339844 L 0.914063 55.835938 C 1.363281 59.101563 2.175781 62.253906 3.300781 65.253906 L 15.507813 16.488281 C 14.828125 17.085938 14.167969 17.703125 13.527344 18.339844 "/>
<path style=" stroke:none;fill-rule:evenodd;fill:rgb(32.899475%,58.399963%,20.399475%);fill-opacity:1;" d="M 21.96875 11.789063 L 3.832031 66.59375 C 4.890625 69.152344 6.183594 71.585938 7.679688 73.875 L 24.113281 10.589844 C 23.386719 10.96875 22.671875 11.371094 21.96875 11.789063 "/>
<path style=" stroke:none;fill-rule:evenodd;fill:rgb(32.899475%,58.399963%,20.399475%);fill-opacity:1;" d="M 31.664063 7.507813 L 8.566406 75.179688 C 9.863281 77.011719 11.296875 78.734375 12.847656 80.34375 L 32.988281 7.132813 C 32.542969 7.25 32.105469 7.375 31.664063 7.507813 "/>
<path style=" stroke:none;fill-rule:evenodd;fill:rgb(32.899475%,58.399963%,20.399475%);fill-opacity:1;" d="M 38.941406 5.980469 L 14.300781 81.78125 C 15.699219 83.101563 17.179688 84.328125 18.738281 85.457031 L 39.941406 5.867188 C 39.605469 5.902344 39.273438 5.9375 38.941406 5.980469 "/>
<path style=" stroke:none;fill-rule:evenodd;fill:rgb(32.899475%,58.399963%,20.399475%);fill-opacity:1;" d="M 45.214844 5.667969 L 19.808594 86.207031 C 21.355469 87.257813 22.976563 88.207031 24.65625 89.054688 L 46.101563 5.695313 C 45.804688 5.683594 45.511719 5.671875 45.214844 5.667969 "/>
<path style=" stroke:none;fill-rule:evenodd;fill:rgb(32.899475%,58.399963%,20.399475%);fill-opacity:1;" d="M 52.152344 6.371094 L 25.777344 89.601563 C 27.53125 90.425781 29.347656 91.136719 31.222656 91.722656 L 53.070313 6.550781 C 52.765625 6.488281 52.460938 6.429688 52.152344 6.371094 "/>
<path style=" stroke:none;fill-rule:evenodd;fill:rgb(32.899475%,58.399963%,20.399475%);fill-opacity:1;" d="M 57.304688 7.648438 L 32.191406 92.015625 C 33.851563 92.492188 35.554688 92.871094 37.289063 93.152344 L 58.367188 8 C 58.015625 7.878906 57.660156 7.761719 57.304688 7.648438 "/>
<path style=" stroke:none;fill-rule:evenodd;fill:rgb(32.899475%,58.399963%,20.399475%);fill-opacity:1;" d="M 63.089844 9.941406 L 38.429688 93.320313 C 40.339844 93.578125 42.285156 93.710938 44.265625 93.710938 C 44.386719 93.710938 44.507813 93.707031 44.632813 93.707031 L 64.074219 10.425781 C 63.75 10.261719 63.421875 10.097656 63.089844 9.941406 "/>
<path style=" stroke:none;fill-rule:evenodd;fill:rgb(32.899475%,58.399963%,20.399475%);fill-opacity:1;" d="M 69.046875 13.410156 L 45.902344 93.675781 C 47.726563 93.609375 49.527344 93.429688 51.292969 93.140625 L 69.996094 14.089844 C 69.683594 13.859375 69.367188 13.632813 69.046875 13.410156 "/>
<path style=" stroke:none;fill-rule:evenodd;fill:rgb(32.899475%,58.399963%,20.399475%);fill-opacity:1;" d="M 74.945313 18.316406 L 52.53125 92.917969 C 54.394531 92.558594 56.21875 92.082031 57.996094 91.488281 L 75.960938 19.347656 C 75.628906 18.996094 75.289063 18.652344 74.945313 18.316406 "/>
<path style=" stroke:none;fill-rule:evenodd;fill:rgb(32.899475%,58.399963%,20.399475%);fill-opacity:1;" d="M 80.195313 24.566406 L 59.714844 90.875 C 62.035156 89.992188 64.261719 88.917969 66.378906 87.667969 L 81.160156 26.015625 C 80.847656 25.527344 80.523438 25.042969 80.195313 24.566406 "/>
<path style=" stroke:none;fill-rule:evenodd;fill:rgb(32.899475%,58.399963%,20.399475%);fill-opacity:1;" d="M 84.707031 32.851563 L 68.410156 86.390625 C 70.953125 84.691406 73.3125 82.734375 75.445313 80.558594 L 85.640625 35.320313 C 85.355469 34.484375 85.042969 33.664063 84.707031 32.851563 "/>
<path style=" stroke:none;fill-rule:evenodd;fill:rgb(32.899475%,58.399963%,20.399475%);fill-opacity:1;" d="M 87.398438 42.179688 L 79.25 76.125 C 80.824219 74.027344 82.214844 71.78125 83.398438 69.417969 L 87.910156 46.316406 C 87.804688 44.917969 87.632813 43.539063 87.398438 42.179688 "/>
</g>
</svg>
